<svg xmlns="http://www.w3.org/2000/svg" xmlns:xlink="http://www.w3.org/1999/xlink" version="1.1" x="0px" y="0px" viewBox="0 0 64 80" enable-background="new 0 0 64 64" xml:space="preserve"><g><circle cx="31.992" cy="32.001" r="3.135"/><path d="M59.525,39.716c0-2.661-2.178-4.839-4.835-4.839c-0.46,0-0.898,0.086-1.32,0.208c-0.594-1-1.285-2.01-2.051-3.02   c4.62-6.025,6.217-11.932,3.628-15.737c-0.001-0.001-0.002-0.003-0.003-0.004c-2.241-3.266-7.086-4.187-13.053-3.031   c-2.414-5.598-5.927-9.068-9.898-9.068c-3.95,0-7.445,3.43-9.858,8.973c-5.907-1.168-10.71-0.274-12.96,2.957   c-1.171,1.681-1.556,3.876-1.112,6.349c0.526,2.932,2.151,6.173,4.616,9.426c-2.483,3.227-4.129,6.45-4.676,9.373   c-0.214,1.148-0.242,2.234-0.103,3.241c-1.283,0.873-2.131,2.344-2.131,4.004c0,2.66,2.176,4.755,4.836,4.755   c1.754,0,3.284-0.923,4.132-2.309c0.874,0.156,1.803,0.238,2.786,0.238c1.433,0,2.974-0.17,4.588-0.486   c2.414,5.576,5.92,9.028,9.882,9.028c3.935,0,7.419-3.407,9.831-8.915c1.621,0.324,3.17,0.498,4.61,0.498   c0.976,0,1.902-0.076,2.771-0.233c2.493-0.448,4.432-1.584,5.606-3.279c0.713-1.023,1.13-2.24,1.252-3.59   C58.052,43.676,59.525,41.896,59.525,39.716z M46.454,15.604c2.935,0,5.106,0.804,6.15,2.321c1.662,2.444,0.543,6.918-3.118,11.888   c-1.356-1.544-2.899-3.071-4.59-4.554c-0.392-3.409-1.078-6.552-2.001-9.314C44.171,15.721,45.367,15.604,46.454,15.604z    M37.877,40.618c-1.965,1.343-3.967,2.529-5.952,3.552c-1.962-1.033-3.937-2.227-5.873-3.577c-1.502-1.044-2.926-2.142-4.261-3.271   c-0.162-1.696-0.25-3.474-0.25-5.322c0-1.863,0.089-3.653,0.254-5.361c1.35-1.125,2.792-2.218,4.311-3.257   c2.015-1.378,4.003-2.558,5.933-3.557c1.929,1.017,3.915,2.218,5.927,3.617c1.489,1.031,2.901,2.115,4.225,3.231   c0.163,1.698,0.25,3.477,0.25,5.328c0,1.873-0.09,3.673-0.257,5.389C40.862,38.482,39.426,39.564,37.877,40.618z M41.627,41.423   c-0.403,2.229-0.938,4.269-1.573,6.085c-1.599-0.458-3.267-1.066-4.969-1.813c1.467-0.828,2.936-1.741,4.391-2.736   C40.214,42.457,40.929,41.944,41.627,41.423z M28.753,45.667c-1.665,0.713-3.296,1.297-4.861,1.738   c-0.622-1.796-1.145-3.81-1.541-6.006c0.678,0.515,1.368,1.024,2.081,1.52C25.863,43.917,27.308,44.834,28.753,45.667z    M18.762,34.547c-0.868-0.862-1.677-1.731-2.424-2.603c0.749-0.86,1.558-1.717,2.426-2.567c-0.037,0.863-0.058,1.737-0.058,2.623   C18.706,32.86,18.727,33.708,18.762,34.547z M22.353,22.591c0.402-2.231,0.937-4.272,1.572-6.089   c1.575,0.448,3.243,1.051,4.98,1.812c-1.464,0.825-2.934,1.727-4.399,2.728C23.768,21.547,23.055,22.066,22.353,22.591z    M35.185,18.337c1.709-0.734,3.352-1.317,4.903-1.75c0.623,1.798,1.147,3.816,1.544,6.015c-0.668-0.505-1.347-1.004-2.049-1.49   C38.119,20.095,36.648,19.177,35.185,18.337z M45.22,29.439c0.88,0.871,1.698,1.75,2.453,2.632   c-0.746,0.858-1.567,1.721-2.457,2.587c0.038-0.874,0.06-1.759,0.06-2.658C45.276,31.135,45.255,30.282,45.22,29.439z M31.992,7.06   c2.462,0,5.064,2.543,7.056,6.911c-2.24,0.642-4.592,1.543-6.997,2.699c-2.433-1.192-4.812-2.119-7.077-2.779   C26.96,9.573,29.545,7.06,31.992,7.06z M10.851,22.005c-0.312-1.74-0.094-3.163,0.648-4.228c0,0,0,0,0-0.001   c1.039-1.491,3.171-2.279,6.047-2.279c1.089,0,2.291,0.12,3.575,0.351c-0.935,2.775-1.631,5.937-2.029,9.371   c-1.674,1.452-3.204,2.948-4.553,4.46C12.571,26.979,11.269,24.339,10.851,22.005z M15.406,48.229   c-0.168-2.486-2.216-4.473-4.731-4.511c-0.037-0.586-0.016-1.207,0.112-1.892c0.435-2.327,1.753-4.951,3.735-7.629   c1.35,1.537,2.883,3.058,4.564,4.536c0.392,3.413,1.079,6.559,2.002,9.324C18.979,48.434,17.054,48.499,15.406,48.229z    M31.992,56.94c-2.457,0-5.053-2.533-7.043-6.885c2.24-0.648,4.582-1.557,6.961-2.703c2.416,1.191,4.799,2.134,7.078,2.805   C37.003,54.445,34.429,56.94,31.992,56.94z M48.702,48.335c-1.682,0.302-3.67,0.23-5.846-0.166   c0.936-2.773,1.634-5.934,2.033-9.367c1.693-1.466,3.221-2.972,4.567-4.486c0.57,0.782,1.083,1.559,1.535,2.326   c-0.698,0.839-1.137,1.903-1.137,3.074c0,2.142,1.42,3.897,3.359,4.507c-0.099,0.763-0.336,1.437-0.731,2.006   C51.733,47.309,50.461,48.018,48.702,48.335z"/></g><text x="0" y="79" fill="#000000" font-size="5px" font-weight="bold" font-family="'Helvetica Neue', Helvetica, Arial-Unicode, Arial, Sans-serif">Created by andrea zudip aggasi</text><text x="0" y="84" fill="#000000" font-size="5px" font-weight="bold" font-family="'Helvetica Neue', Helvetica, Arial-Unicode, Arial, Sans-serif">from the Noun Project</text></svg>